Coordinates
version=1
nRows=11
nColumns=63
inDegrees=yes

Units are S.I. units (second, meters, Newtons, ...)
If the header above contains a line with 'inDegrees', this indicates whether rotational values are in degrees (yes) or radians (no).

endheader
time	pelvis_tilt	pelvis_list	pelvis_rotation	pelvis_tx	pelvis_ty	pelvis_tz	hip_flexion_r	hip_adduction_r	hip_rotation_r	knee_angle_r	knee_angle_r_beta	ankle_angle_r	subtalar_angle_r	mtp_angle_r	hip_flexion_l	hip_adduction_l	hip_rotation_l	knee_angle_l	knee_angle_l_beta	ankle_angle_l	subtalar_angle_l	mtp_angle_l	L5_S1_Flex_Ext	L5_S1_Lat_Bending	L5_S1_axial_rotation	L4_L5_Flex_Ext	L4_L5_Lat_Bending	L4_L5_axial_rotation	L3_L4_Flex_Ext	L3_L4_Lat_Bending	L3_L4_axial_rotation	L2_L3_Flex_Ext	L2_L3_Lat_Bending	L2_L3_axial_rotation	L1_L2_Flex_Ext	L1_L2_Lat_Bending	L1_L2_axial_rotation	L1_T12_Flex_Ext	L1_T12_Lat_Bending	L1_T12_axial_rotation	Abs_r3	Abs_r2	Abs_r1	Abs_t1	Abs_t2	neck_flexion	neck_bending	neck_rotation	arm_flex_r	arm_add_r	arm_rot_r	elbow_flex_r	pro_sup_r	wrist_flex_r	wrist_dev_r	arm_flex_l	arm_add_l	arm_rot_l	elbow_flex_l	pro_sup_l	wrist_flex_l	wrist_dev_l
0.000000	2.787450	-2.999758	89.142912	0.248250	1.023917	0.303499	0.765117	-0.760011	-13.487524	13.802314	0.240896	29.819337	18.371271	0.000000	-5.086714	-0.248375	14.375537	0.377578	0.006590	19.605253	-22.750611	0.000000	0.168330	0.409505	1.606049	0.312605	0.544641	1.706427	0.276549	0.995670	1.706427	0.192384	0.995670	1.405293	0.156311	0.835062	1.304914	0.096184	0.634323	1.204536	1.202364	4.632401	8.932360	0.000000	0.000000	20.413064	-13.219318	-10.852037	3.592163	-16.836397	51.891559	58.511521	86.549752	11.749315	14.828433	24.360982	-13.994102	94.255419	61.726722	25.622314	-12.207437	-7.533606
0.016667	3.448532	-2.994499	90.369321	0.246228	1.023582	0.304771	0.807820	-0.036964	-14.357429	13.576817	0.236960	30.252858	18.418165	0.000000	-4.271634	-1.280349	10.461611	1.834179	0.032012	21.760464	-15.536580	0.000000	0.163118	0.502750	1.299348	0.302927	0.668657	1.380558	0.267987	1.222385	1.380558	0.186428	1.222385	1.136930	0.151472	1.025207	1.055721	0.093206	0.778759	0.974511	1.165139	5.687204	7.226586	0.000000	0.000000	21.348724	-13.238701	-9.527433	4.117549	-17.202849	53.284495	58.454047	81.919134	10.483189	14.864145	24.778909	-13.844963	95.626280	62.140905	20.581653	-17.382086	-9.046189
0.033333	3.980225	-2.996316	91.370942	0.244575	1.023304	0.305894	0.853290	0.538965	-15.100705	13.414506	0.234127	30.577090	18.456348	0.000000	-3.571947	-2.118283	7.196770	3.094017	0.054001	23.582416	-9.548742	0.000000	0.160272	0.578534	1.037835	0.297641	0.769451	1.102700	0.263311	1.406648	1.102700	0.183175	1.406648	0.908106	0.148829	1.179747	0.843241	0.091579	0.896150	0.778376	1.144807	6.544496	5.772128	0.000000	0.000000	22.095994	-13.172921	-8.269287	4.626295	-17.505853	54.594653	58.386993	78.030680	9.415996	14.856610	24.917055	-13.803139	96.148349	62.520179	17.532799	-21.216552	-9.789803
0.050000	4.392817	-3.004187	92.164387	0.243262	1.023079	0.306883	0.901963	0.979475	-15.724330	13.310792	0.232317	30.804142	18.486753	0.000000	-2.979482	-2.777248	4.526638	4.169768	0.072776	25.096464	-4.687967	0.000000	0.159439	0.638178	0.819253	0.296095	0.848777	0.870456	0.261943	1.551666	0.870456	0.182223	1.551666	0.716846	0.148055	1.301373	0.665643	0.091104	0.988538	0.614440	1.138859	7.219198	4.556439	0.000000	0.000000	22.671732	-13.035152	-7.087611	5.111821	-17.749993	55.811879	58.312600	74.832069	8.535583	14.811499	24.807895	-13.851563	95.915981	62.855357	16.278543	-23.802846	-9.846185
0.066667	4.696594	-3.017090	92.766266	0.242257	1.022901	0.307750	0.954274	1.296267	-16.235280	13.261083	0.231450	30.946125	18.510316	0.000000	-2.486067	-3.272311	2.396841	5.074107	0.088560	26.327964	-0.855121	0.000000	0.160268	0.683000	0.641345	0.297634	0.908389	0.681429	0.263305	1.660645	0.681429	0.183171	1.660645	0.561177	0.148825	1.392773	0.521093	0.091577	1.057966	0.481009	1.144780	7.726228	3.566970	0.000000	0.000000	23.092794	-12.838569	-5.992417	5.567549	-17.939852	56.926015	58.233110	72.270977	7.829797	14.734486	24.483903	-13.973170	95.023533	63.137249	16.621678	-25.232974	-9.297077
0.083333	4.901843	-3.034001	93.193191	0.241532	1.022764	0.308510	1.010657	1.501043	-16.640534	13.260790	0.231444	31.015148	18.527969	0.000000	-2.083531	-3.618541	0.753000	5.819710	0.101573	27.302270	2.048928	0.000000	0.162407	0.714318	0.501856	0.301607	0.950042	0.533222	0.266819	1.736792	0.533222	0.185615	1.736792	0.439124	0.150811	1.456637	0.407758	0.092800	1.106478	0.376392	1.160059	8.080504	2.791172	0.000000	0.000000	23.376036	-12.596347	-4.993717	5.986896	-18.080015	57.926906	58.150762	70.295080	7.286485	14.631241	23.977556	-14.150895	93.565359	63.356669	18.364993	-25.598946	-8.224216
0.100000	5.018852	-3.053899	93.461771	0.241056	1.022664	0.309175	1.071547	1.605503	-16.947068	13.305321	0.232222	31.023321	18.540647	0.000000	-1.763704	-3.831007	-0.459260	6.419250	0.112037	28.044737	4.123312	0.000000	0.165505	0.733451	0.398529	0.307359	0.975490	0.423437	0.271908	1.783313	0.423437	0.189156	1.783313	0.348713	0.153688	1.495654	0.323805	0.094570	1.136116	0.298897	1.182185	8.296947	2.216498	0.000000	0.000000	23.538315	-12.321662	-4.101523	6.363285	-18.175064	58.804396	58.067797	68.852056	6.893495	14.507437	23.321327	-14.367671	91.635815	63.504427	21.311280	-24.992770	-6.709342
0.116667	5.057908	-3.075759	93.588617	0.240798	1.022595	0.309761	1.137381	1.621347	-17.161860	13.390087	0.233701	30.982755	18.549283	0.000000	-1.518414	-3.924779	-1.294315	6.885405	0.120173	28.580722	5.467163	0.000000	0.169209	0.741719	0.329108	0.314239	0.986486	0.349677	0.277994	1.803416	0.349677	0.193389	1.803416	0.287969	0.157128	1.512514	0.267400	0.096686	1.148923	0.246831	1.208646	8.390475	1.830398	0.000000	0.000000	23.596488	-12.027688	-3.325847	6.690135	-18.229585	59.548329	57.986456	67.889580	6.638672	14.368746	22.547692	-14.606432	89.329257	63.571337	25.263330	-23.506455	-4.834194
0.133333	5.029296	-3.098561	93.590342	0.240728	1.022551	0.310280	1.208592	1.560276	-17.291887	13.510496	0.235803	30.905559	18.554811	0.000000	-1.339492	-3.914923	-1.806542	7.230848	0.126202	28.935578	6.179615	0.000000	0.173169	0.740440	0.291336	0.321592	0.984785	0.309545	0.284499	1.800306	0.309545	0.197915	1.800306	0.254919	0.160805	1.509906	0.236711	0.098949	1.146942	0.218502	1.236928	8.376007	1.620324	0.000000	0.000000	23.567410	-11.727600	-2.676701	6.960866	-18.248159	60.148549	57.908979	67.355331	6.509865	14.220839	21.689125	-14.850114	86.740041	63.548209	30.023935	-21.232010	-2.680513
0.150000	4.943305	-3.121281	93.483554	0.240817	1.022527	0.310747	1.285616	1.433991	-17.344126	13.661959	0.238446	30.803844	18.558165	0.000000	-1.218765	-3.816510	-2.050317	7.468255	0.130346	29.134662	6.359799	0.000000	0.177032	0.730933	0.282958	0.328766	0.972141	0.300643	0.290846	1.777191	0.300643	0.202330	1.777191	0.247588	0.164392	1.490519	0.229903	0.101156	1.132216	0.212218	1.264521	8.268463	1.573727	0.000000	0.000000	23.467939	-11.434574	-2.164096	7.168898	-18.235371	60.594901	57.837608	67.196984	6.494921	14.069388	20.778102	-15.081650	83.962522	63.425856	35.395885	-18.261443	-0.330036
0.166667	4.810220	-3.142896	93.284865	0.241033	1.022517	0.311174	1.368889	1.254192	-17.325555	13.839884	0.241552	30.689719	18.560279	0.000000	-1.148062	-3.644608	-2.080015	7.610301	0.132825	29.203329	6.106847	0.000000	0.180447	0.714517	0.301717	0.335108	0.950308	0.320574	0.296456	1.737277	0.320574	0.206233	1.737277	0.264002	0.167563	1.457043	0.245145	0.103107	1.106787	0.226288	1.288913	8.082761	1.678060	0.000000	0.000000	23.314931	-11.161784	-1.798046	7.307652	-18.195805	60.877227	57.774582	67.362216	6.581686	13.920066	19.847097	-15.283974	81.091055	63.195090	41.181971	-14.686762	2.135497
